<?xml version="1.0" standalone="no"?>
<!DOCTYPE svg PUBLIC "-//W3C//DTD SVG 20010904//EN"
 "http://www.w3.org/TR/2001/REC-SVG-20010904/DTD/svg10.dtd">
<svg version="1.0" xmlns="http://www.w3.org/2000/svg"
 width="1920.000000pt" height="1080.000000pt" viewBox="0 0 1920.000000 1080.000000"
 preserveAspectRatio="xMidYMid meet">

<g transform="translate(0.000000,1080.000000) scale(0.100000,-0.100000)"
fill="#000000" stroke="none">
<path d="M8820 7640 c-307 -78 -717 -542 -1026 -1160 -127 -256 -295 -635
-425 -965 l-79 -200 -73 -68 c-271 -257 -669 -481 -1260 -708 -66 -25 -99 -34
-102 -26 -2 7 -8 48 -15 92 -34 244 -119 476 -252 692 -120 197 -169 423 -147
682 41 477 414 964 837 1091 99 30 276 25 366 -10 81 -31 149 -99 171 -171 26
-85 31 -231 10 -309 -73 -282 -387 -575 -870 -816 -93 -46 -175 -84 -183 -84
-22 0 -8 -65 22 -105 55 -72 177 -100 312 -70 362 79 771 489 916 918 40 120
50 300 24 421 -38 168 -141 314 -266 374 -171 82 -368 81 -612 -4 -250 -87
-521 -269 -667 -448 -145 -177 -235 -363 -283 -581 -18 -82 -17 -407 1 -505
21 -113 88 -300 201 -553 120 -270 171 -445 173 -587 1 -135 -17 -159 -193
-252 -377 -201 -586 -392 -662 -606 -25 -69 -29 -199 -9 -256 43 -124 190
-192 356 -166 177 28 350 158 490 370 100 151 189 376 230 578 20 100 36 140
67 169 13 12 101 49 203 84 476 164 785 313 1024 497 49 37 81 56 77 45 -21
-54 -88 -289 -102 -357 -33 -160 19 -313 99 -292 58 14 142 207 247 565 39
134 73 249 77 254 3 5 32 -94 63 -219 86 -340 128 -442 216 -531 80 -80 186
-102 334 -68 139 33 407 186 624 359 121 96 118 95 100 44 -21 -56 -30 -211
-15 -263 38 -141 158 -202 308 -157 178 55 448 262 723 555 46 48 85 86 87 83
2 -2 -5 -39 -16 -82 -59 -235 -56 -418 10 -551 36 -74 71 -103 159 -133 268
-91 703 135 1240 645 52 49 107 100 121 113 l27 23 -24 -93 c-67 -262 -55
-476 34 -603 18 -25 49 -51 87 -70 55 -28 65 -30 174 -30 104 0 125 4 208 32
218 76 426 210 734 474 194 166 849 816 849 842 0 11 -7 25 -15 31 -13 10 -9
18 29 55 25 25 48 43 50 40 3 -3 17 -68 32 -144 23 -118 27 -168 28 -320 1
-172 0 -183 -26 -254 -15 -41 -31 -78 -36 -83 -5 -5 -78 -16 -163 -23 -295
-28 -441 -67 -506 -136 -68 -72 -63 -200 11 -280 159 -174 448 -153 666 48 70
65 141 156 178 228 l20 41 121 22 c156 29 288 71 430 138 185 88 263 147 506
383 216 211 244 243 245 289 0 19 -5 22 -36 22 -72 0 -131 -41 -394 -275 -286
-254 -388 -322 -566 -378 -70 -22 -227 -57 -256 -57 -6 0 -7 8 -3 18 13 34 5
221 -15 338 -11 65 -43 212 -72 327 l-51 208 100 97 c150 146 223 286 223 427
0 87 -35 166 -84 189 -42 20 -128 21 -165 2 -102 -53 -188 -257 -211 -500 -9
-106 -11 -110 -52 -165 -23 -31 -120 -135 -215 -232 -95 -98 -177 -189 -183
-204 -5 -14 -10 -40 -10 -56 0 -26 -32 -61 -227 -253 -126 -123 -257 -249
-293 -281 -298 -265 -598 -441 -785 -461 -159 -17 -197 175 -105 531 62 235
153 453 209 495 14 11 64 46 111 76 125 83 236 178 415 358 248 249 442 483
634 766 320 472 403 778 241 888 -31 21 -44 23 -106 20 -115 -7 -234 -72 -401
-217 -377 -327 -889 -1124 -1179 -1835 l-46 -111 -151 -153 c-196 -199 -393
-382 -509 -475 -324 -259 -635 -395 -735 -321 -60 44 -78 183 -48 360 37 210
150 533 216 617 11 14 63 55 117 90 334 219 773 691 1100 1182 114 172 245
430 272 539 51 203 -6 326 -151 326 -198 0 -489 -234 -796 -641 -298 -394
-604 -934 -808 -1425 -41 -100 -43 -102 -242 -321 -263 -288 -458 -468 -638
-588 -107 -71 -158 -91 -192 -76 -66 30 -1 177 275 623 93 150 181 296 197
323 15 28 45 68 65 90 53 56 64 81 52 113 -6 15 -13 44 -17 65 -10 64 -104
146 -168 147 -34 0 -242 -304 -391 -575 -74 -133 -78 -138 -301 -317 -186
-149 -390 -287 -515 -347 -85 -41 -102 -46 -167 -46 -65 0 -74 3 -101 28 -43
42 -80 131 -108 265 -69 325 -111 416 -203 439 l-35 9 80 29 c351 126 656 356
718 540 21 61 15 103 -22 137 -137 127 -437 -6 -654 -290 -23 -29 -42 -51 -44
-49 -4 3 171 395 180 404 2 3 52 29 110 58 222 112 493 313 720 535 225 219
367 400 449 570 46 94 51 113 55 187 4 69 1 89 -17 127 -25 51 -72 96 -134
128 -47 24 -166 34 -227 18z m200 -128 c19 -9 41 -28 48 -42 31 -59 -14 -191
-118 -345 -176 -262 -581 -664 -858 -853 -94 -64 -168 -105 -182 -100 -5 2 22
68 59 148 279 593 656 1102 883 1192 56 22 124 22 168 0z m2700 -152 c27 -15
44 -79 35 -136 -13 -86 -184 -389 -351 -622 -148 -206 -270 -348 -459 -538
-156 -157 -416 -384 -439 -384 -15 0 261 522 412 779 378 647 669 972 802 901z
m1540 -8 c27 -22 36 -83 21 -151 -17 -82 -184 -372 -331 -578 -163 -228 -263
-346 -470 -554 -180 -180 -419 -389 -445 -389 -17 0 331 644 483 895 353 581
628 870 742 777z m652 -987 c26 -58 -56 -264 -142 -358 -71 -77 -79 -56 -44
113 18 83 73 212 106 247 29 31 65 30 80 -2z m-5723 -509 c28 -33 -24 -131
-123 -235 -117 -121 -266 -208 -376 -218 -44 -4 -60 -2 -60 7 0 44 264 309
409 410 36 25 95 49 122 50 9 0 22 -6 28 -14z m5321 -1143 c0 -12 -82 -113
-121 -147 -125 -113 -249 -135 -300 -52 -21 34 -25 86 -9 116 20 38 134 65
355 83 22 2 48 4 58 5 9 1 17 -1 17 -5z m-8004 -570 c-32 -229 -196 -468 -383
-559 -69 -34 -175 -53 -197 -35 -70 58 88 286 339 488 75 61 219 153 238 153
5 0 6 -21 3 -47z"/>
<path d="M9755 6336 c-58 -27 -165 -166 -189 -246 -20 -66 -11 -99 30 -116 63
-26 127 -13 198 41 82 62 143 202 118 267 -21 52 -101 80 -157 54z"/>
</g>
</svg>
